{"title":"Her Sister's Keeper( 2006)DVD.Rip.XviD.AC-3","uid":6818025,"size":735245018,"categoryP":"video","categoryS":"movies","magnet":"?xt=urn:btih:0a331dce793ce88e3710b386e949267546b92439&amp;dn=Her+Sister%5C%27s+Keeper%28+2006%29DVD.Rip.XviD.AC-3&amp;tr=udp%3A%2F%2Ftracker.openbittorrent.com%3A80&amp;tr=udp%3A%2F%2Fopen.demonii.com%3A1337&amp;tr=udp%3A%2F%2Ftracker.coppersurfer.tk%3A6969&amp;tr=udp%3A%2F%2Fexodus.desync.com%3A6969","seeders":0,"leechers":1,"uploader":"TvTeam","files":4,"time":1321294991,"description":". \n &lt;a href=&quot;\nhttp://www.torrenting.com&quot; rel=&quot;nofollow&quot; target=&quot;_NEW&quot;&gt;\nhttp://www.torrenting.com&lt;/a&gt;          :     Once &amp; For all ;)\n\n\n               www . Torrenting . Com \n\n(((((((((((((= Enjoy No RAR releases =))))))))))))))))))))\n\n\n...................................NFO:....................................\n\n.Video\nID                               : 0\nFormat                           : MPEG-4 Visual\nFormat profile                   : Advanced Simple@L5\nFormat settings, BVOP            : Yes\nFormat settings, QPel            : No\nFormat settings, GMC             : No warppoints\nFormat settings, Matrix          : Default (H.263)\nMuxing mode                      : Packed bitstream\nCodec ID                         : XVID\nCodec ID/Hint                    : XviD\nDuration                         : 1h 30mn\nBit rate                         : 627 Kbps\nWidth                            : 636 pixels\nHeight                           : 318 pixels\nDisplay aspect ratio             : 2.000\nFrame rate                       : 25.000 fps\nColor space                      : YUV\nChroma subsampling               : 4:2:0\nBit depth                        : 8 bits\nScan type                        : Progressive\nBits/(Pixel*Frame)               : 0.124\nStream size                      : 406 MiB (58%)\nWriting library                  : XviD 62\n\nAudio\nID                               : 1\nFormat                           : AC-3\nFormat/Info                      : Audio Coding 3\nMode extension                   : CM (complete main)\nCodec ID                         : 2000\nDuration                         : 1h 30mn\nBit rate mode                    : Constant\nBit rate                         : 448 Kbps\nChannel(s)                       : 6 channels\nChannel positions                : Front: L C R, Side: L R, LFE\nSampling rate                    : 48.0 KHz\nBit depth                        : 16 bits\nStream size                      : 290 MiB (41%)\nAlignment                        : Split accross interleaves\nInterleave, duration             : 64 ms (1.60 video frames)\nInterleave, preload duration     : 500 ms","torrent":{"xt":"urn:btih:0a331dce793ce88e3710b386e949267546b92439","amp;dn":"Her+Sister%5C%27s+Keeper%28+2006%29DVD.Rip.XviD.AC-3","amp;tr":["udp%3A%2F%2Ftracker.openbittorrent.com%3A80","udp%3A%2F%2Fopen.demonii.com%3A1337","udp%3A%2F%2Ftracker.coppersurfer.tk%3A6969","udp%3A%2F%2Fexodus.desync.com%3A6969"],"infoHash":"0a331dce793ce88e3710b386e949267546b92439","infoHashBuffer":{"type":"Buffer","data":[10,51,29,206,121,60,232,142,55,16,179,134,233,73,38,117,70,185,36,57]},"announce":[],"urlList":[]}}